<mxfile host="app.diagrams.net" agent="Mozilla/5.0 (Macintosh; Intel Mac OS X 10.15; rv:131.0) Gecko/20100101 Firefox/131.0" version="24.8.0">
  <diagram name="Page-1" id="x8_4FBbWoOlZsKiimyMh">
    <mxGraphModel dx="1434" dy="1247" grid="0" gridSize="10" guides="1" tooltips="1" connect="1" arrows="1" fold="1" page="0" pageScale="1" pageWidth="827" pageHeight="1169" math="0" shadow="0">
      <root>
        <mxCell id="0" />
        <mxCell id="1" parent="0" />
        <mxCell id="bIqtxXXJ1SO3LrNQoBOk-1" value="Complex" style="swimlane;fontStyle=1;align=center;verticalAlign=top;childLayout=stackLayout;horizontal=1;startSize=26;horizontalStack=0;resizeParent=1;resizeParentMax=0;resizeLast=0;collapsible=1;marginBottom=0;whiteSpace=wrap;html=1;" vertex="1" parent="1">
          <mxGeometry x="43" y="-159" width="445" height="220" as="geometry" />
        </mxCell>
        <mxCell id="bIqtxXXJ1SO3LrNQoBOk-2" value="&lt;div&gt;- real : float&lt;/div&gt;&lt;div&gt;- imaginary : float&lt;br&gt;&lt;/div&gt;" style="text;strokeColor=none;fillColor=none;align=left;verticalAlign=top;spacingLeft=4;spacingRight=4;overflow=hidden;rotatable=0;points=[[0,0.5],[1,0.5]];portConstraint=eastwest;whiteSpace=wrap;html=1;" vertex="1" parent="bIqtxXXJ1SO3LrNQoBOk-1">
          <mxGeometry y="26" width="445" height="41" as="geometry" />
        </mxCell>
        <mxCell id="bIqtxXXJ1SO3LrNQoBOk-3" value="" style="line;strokeWidth=1;fillColor=none;align=left;verticalAlign=middle;spacingTop=-1;spacingLeft=3;spacingRight=3;rotatable=0;labelPosition=right;points=[];portConstraint=eastwest;strokeColor=inherit;" vertex="1" parent="bIqtxXXJ1SO3LrNQoBOk-1">
          <mxGeometry y="67" width="445" height="8" as="geometry" />
        </mxCell>
        <mxCell id="bIqtxXXJ1SO3LrNQoBOk-4" value="&lt;div&gt;&amp;lt;&amp;lt;constructor&amp;gt;&amp;gt; Complex(real_val : float, imag_val: float)&lt;/div&gt;&lt;div&gt;+ get_real(): float&lt;/div&gt;&lt;div&gt;+ get_imag(): float&lt;/div&gt;&lt;div&gt;+ set_real(user_val : float)&lt;/div&gt;&lt;div&gt;+ set_imag(user_val : float)&lt;/div&gt;&lt;div&gt;+ print() : string&lt;/div&gt;&lt;div&gt;+ print_conjugate() : string&lt;/div&gt;&lt;div&gt;+ get_magnitude() : float&lt;/div&gt;&lt;div&gt;+ get_argument() : float&lt;br&gt;&lt;/div&gt;&lt;div&gt;&lt;br&gt;&lt;/div&gt;" style="text;strokeColor=none;fillColor=none;align=left;verticalAlign=top;spacingLeft=4;spacingRight=4;overflow=hidden;rotatable=0;points=[[0,0.5],[1,0.5]];portConstraint=eastwest;whiteSpace=wrap;html=1;" vertex="1" parent="bIqtxXXJ1SO3LrNQoBOk-1">
          <mxGeometry y="75" width="445" height="145" as="geometry" />
        </mxCell>
      </root>
    </mxGraphModel>
  </diagram>
</mxfile>
